<?xml version="1.0" encoding="iso-8859-1"?>
<!-- Generator: Adobe Illustrator 19.0.0, SVG Export Plug-In . SVG Version: 6.00 Build 0)  -->
<svg version="1.1" id="Capa_1" xmlns="http://www.w3.org/2000/svg" xmlns:xlink="http://www.w3.org/1999/xlink" x="0px" y="0px"
	 viewBox="0 0 490.057 490.057" style="enable-background:new 0 0 490.057 490.057;" xml:space="preserve">
<g>
	<path d="M489.194,464l-36.4-293.4c-1-10.4-9.4-17.7-19.8-17.7h-23.9v-16.6c0-74.9-61.4-136.3-136.3-136.3c-12.6,0-24.6,1.7-35.9,5
		c-11.3-3.3-23.3-5-35.9-5c-74.9,0-136.3,61.4-136.3,136.3v16.6h-10.4c-9.4,0-18.7,7.3-19.8,17.7l-34.3,296.5
		c0,18,14.4,23.6,20.8,22.9c0,0,448.9,0,449.4,0C481.894,490.1,492.694,478.9,489.194,464z M367.394,136.3v16.6h-40.6v-16.6
		c0-36.3-11.2-67.9-30.3-91.6C337.194,55.3,367.394,92.5,367.394,136.3z M187.494,136.3c0-40.7,19.3-73,49.6-87
		c30.1,13.9,49.3,45.6,49.3,87v16.6h-98.8L187.494,136.3z M106.294,136.3c0-43.8,30.3-81,70.9-91.6c-19.1,23.7-30.3,55.3-30.3,91.6
		v16.6h-40.6V136.3z M43.894,449.4l30.2-255.9h342.3l30.2,255.9H43.894z"/>
</g>
<g>
</g>
<g>
</g>
<g>
</g>
<g>
</g>
<g>
</g>
<g>
</g>
<g>
</g>
<g>
</g>
<g>
</g>
<g>
</g>
<g>
</g>
<g>
</g>
<g>
</g>
<g>
</g>
<g>
</g>
</svg>
